<?xml version="1.0" standalone="no"?>
<!DOCTYPE svg PUBLIC "-//W3C//DTD SVG 20010904//EN"
 "http://www.w3.org/TR/2001/REC-SVG-20010904/DTD/svg10.dtd">
<svg version="1.0" xmlns="http://www.w3.org/2000/svg"
 width="260.000000pt" height="260.000000pt" viewBox="0 0 260.000000 260.000000"
 preserveAspectRatio="xMidYMid meet">
<metadata>
Created by potrace 1.14, written by Peter Selinger 2001-2017
</metadata>
<g transform="translate(0.000000,260.000000) scale(0.100000,-0.100000)"
fill="#000000" stroke="none">
<path d="M1169 2596 c-2 -2 -29 -7 -59 -10 -186 -22 -382 -97 -555 -211 -80
-53 -99 -68 -185 -148 -52 -48 -154 -172 -181 -220 -139 -241 -190 -427 -184
-667 7 -318 131 -606 359 -835 121 -122 240 -207 380 -271 32 -14 56 -28 54
-29 -2 -2 -15 -6 -28 -8 -14 -3 -46 -14 -71 -25 -34 -15 -48 -27 -51 -46 -3
-14 -2 -24 1 -23 3 1 15 -7 26 -18 14 -14 52 -26 120 -39 55 -10 114 -22 131
-26 23 -6 34 -3 43 9 10 13 11 13 8 1 -6 -19 44 -23 328 -24 187 -1 331 6 397
20 13 2 55 9 93 16 39 6 74 15 80 19 5 5 17 9 27 9 9 0 28 11 42 25 l24 24
-25 25 c-14 14 -35 28 -47 31 -41 12 -76 28 -76 34 0 4 35 25 77 46 251 126
466 345 584 595 89 188 122 346 115 560 -10 306 -125 573 -342 792 -198 201
-447 331 -734 383 -39 7 -345 17 -351 11z"/>
</g>
</svg>
